/* XPM */
static char *result[] = {
/* columns rows colors chars-per-pixel */
"32 32 6 1 ",
"  c None",
". c #990030",
"X c #ED1C24",
"o c #9C5A3C",
"O c #E5AA7A",
"+ c white",
/* pixels */
"                                ",
"                                ",
"                ++++++          ",
"              +++OOOO+          ",
"             ++OO++o++          ",
"            ++O++++o+           ",
"            +O++  +o+           ",
"           ++o+   +o+           ",
"           +o++   +o++          ",
"           +o+    ++o+          ",
"          ++o+     +o+          ",
"          +o++     +o+          ",
"          +o+     +++o+++       ",
"        +++o+++  ++XXoXX++      ",
"      +++XXoXX++++XX++.XX++     ",
"     ++XXXXoXXXX+XX++XXXXX++    ",
"    ++XX++.o.XXXX+X+XXXXXXX++   ",
"    +XX++XX.XXXXXX+XXXXXXXXX+   ",
"   ++X++XXXXXXXXXX+XXXXXXXXX+   ",
"   +XX+XXXXXXXXXXXX+XXXXXXX.+   ",
"   +XXXXXXXXXXXXXXX+XXXXXX..+   ",
"   +XXXXXXXXXXXXXXX+XXXXX...+   ",
"   +.XXXXXXXXXXXXX.+XXX....++   ",
"   +..XXXXXXXXXXX..+......++    ",
"   ++..XXXXXXXXX...+.....++     ",
"    +....XXXXX....+.....++      ",
"    ++...........++++++++       ",
"     ++.........++              ",
"      +++.....+++               ",
"        +++++++                 ",
"                                ",
"                                "
};
