/* XPM */
static char *result[] = {
/* columns rows colors chars-per-pixel */
"32 32 7 1 ",
"  c None",
". c #755807",
"X c #9C5A3C",
"o c #B87356",
"O c #FFC20E",
"+ c #F5E49C",
"@ c white",
/* pixels */
"                                ",
"                                ",
"                                ",
"                                ",
"                      @@@@      ",
"                      @oo@      ",
"                      @XX@      ",
"                      @XX@@     ",
"                      @O..@@    ",
"                     @@OO..@    ",
"                     @O+OO.@    ",
"                    @@O+OO.@    ",
"                   @@O++OO.@    ",
"                  @@O++OOO.@    ",
"                 @@O++OO.O.@    ",
"                @@O++OOO.O.@    ",
"               @@O++OOO.OO.@    ",
"             @@@O++OOO.OO..@    ",
"           @@@OO++OOO.OOO.@@    ",
"        @@@@OO+++OOO.OOO..@     ",
"      @@@OOO+++OOO..OOO..@@     ",
"    @@@OO++++OOO..OOOO..@@      ",
"    @ooOOOOOOO..OOOOO..@@       ",
"    @XX.OOO...OOOOO...@@        ",
"    @@@...OOOOOO....@@@         ",
"      @@@........@@@@           ",
"        @@@@@@@@@@              ",
"                                ",
"                                ",
"                                ",
"                                ",
"                                "
};
