/* XPM */
static char *result[] = {
/* columns rows colors chars-per-pixel */
"32 32 4 1 ",
"  c None",
". c #ED1C24",
"X c #4D6DF3",
"o c white",
/* pixels */
"                                ",
"                                ",
"            .......             ",
"         .............          ",
"       .................        ",
"      ...................       ",
"     .....................      ",
"    .......................     ",
"   ......oo.........oo......    ",
"   .....oooo.......oooo.....    ",
"  .....oooooo.....oooooo.....   ",
"  .....oooooo.....oooooo.....   ",
"  .....ooXXoo.....ooXXoo.....   ",
"  .....oXXXXo.....oXXXXo.....   ",
"  ......XXXX.......XXXX......   ",
"  .......XX.........XX.......   ",
"  ...........................   ",
"  ...........................   ",
"  ...........................   ",
"  ...........................   ",
"  ...........................   ",
"  ...........................   ",
"  ...........................   ",
"  ...........................   ",
"  ...........................   ",
"  ...........................   ",
"  ...........................   ",
"  ... .....  .....  ..... ...   ",
"  ..   ...    ...    ...   ..   ",
"  .     .      .      .     .   ",
"                                ",
"                                "
};
