/* XPM */
static char *result[] = {
/* columns rows colors chars-per-pixel */
"160 32 2 1 ",
"  c None",
". c white",
/* pixels */
"                                                                                                                                                                ",
"                                                                                                                                                                ",
"                                                                                                                                                                ",
"                                                                                                                                                                ",
"     ...............               ..........               ..........          .....               .....          ..........          .....          .....     ",
"     ...............               ..........               ..........          .....               .....          ..........          .....          .....     ",
"     ...............               ..........               ..........          .....               .....          ..........          .....          .....     ",
"     ...............               ..........               ..........          .....               .....          ..........          .....          .....     ",
"     ...............               ..........               ..........          .....               .....          ..........          .....          .....     ",
"     .....          .....     .....          .....     .....          .....     ..........     ..........     .....          .....     ..........     .....     ",
"     .....          .....     .....          .....     .....          .....     ..........     ..........     .....          .....     ..........     .....     ",
"     .....          .....     .....          .....     .....          .....     ..........     ..........     .....          .....     ..........     .....     ",
"     .....          .....     .....          .....     .....          .....     ..........     ..........     .....          .....     ..........     .....     ",
"     .....          .....     .....          .....     .....          .....     ..........     ..........     .....          .....     ..........     .....     ",
"     ...............          ....................     .....                    .....     .....     .....     ....................     .....     ..........     ",
"     ...............          ....................     .....                    .....     .....     .....     ....................     .....     ..........     ",
"     ...............          ....................     .....                    .....     .....     .....     ....................     .....     ..........     ",
"     ...............          ....................     .....                    .....     .....     .....     ....................     .....     ..........     ",
"     ...............          ....................     .....                    .....     .....     .....     ....................     .....     ..........     ",
"     .....                    .....          .....     .....          .....     .....               .....     .....          .....     .....          .....     ",
"     .....                    .....          .....     .....          .....     .....               .....     .....          .....     .....          .....     ",
"     .....                    .....          .....     .....          .....     .....               .....     .....          .....     .....          .....     ",
"     .....                    .....          .....     .....          .....     .....               .....     .....          .....     .....          .....     ",
"     .....                    .....          .....     .....          .....     .....               .....     .....          .....     .....          .....     ",
"     .....                    .....          .....          ..........          .....               .....     .....          .....     .....          .....     ",
"     .....                    .....          .....          ..........          .....               .....     .....          .....     .....          .....     ",
"     .....                    .....          .....          ..........          .....               .....     .....          .....     .....          .....     ",
"     .....                    .....          .....          ..........          .....               .....     .....          .....     .....          .....     ",
"     .....                    .....          .....          ..........          .....               .....     .....          .....     .....          .....     ",
"                                                                                                                                                                ",
"                                                                                                                                                                ",
"                                                                                                                                                                "
};
