/* XPM */
static char *e5f601141cd046ead86b4f54a65864ffUMYgZWkfYa7WXPLT[] = {
/* columns rows colors chars-per-pixel */
"32 32 3 1 ",
"  c None",
". c #FFC20E",
"X c white",
/* pixels */
"                                ",
"                                ",
"             XXXXXX             ",
"          XXX......XXX          ",
"        XX............XX        ",
"       X................X       ",
"      X..................X      ",
"     X....................X     ",
"    X......................X    ",
"    X......................X    ",
"   X........................X   ",
"   X........................X   ",
"   X........................X   ",
"  X..........................X  ",
"  X..........................X  ",
"  X.............X............X  ",
"  X.............X............X  ",
"  X.............X............X  ",
"  X.............X............X  ",
"   X............X...........X   ",
"   X............X...........X   ",
"   X............X...........X   ",
"    X...........X..........X    ",
"    X...........X..........X    ",
"     X..........X.........X     ",
"      X.........X........X      ",
"       X........X.......X       ",
"        XX......X.....XX        ",
"          XXX...X..XXX          ",
"             XXXXXX             ",
"                                ",
"                                "
};
