/* XPM */
static char *bdaa680a994c4722a6145028738e97ff6pthHY64pms92ArQ[] = {
/* columns rows colors chars-per-pixel */
"32 32 3 1 ",
"  c black",
". c #FFC20E",
"X c white",
/* pixels */
"                                ",
"                                ",
"             XXXXXX             ",
"          XXX......XXX          ",
"        XX............XX        ",
"       X................X       ",
"      X..................X      ",
"     X....................X     ",
"    X......................X    ",
"    X......................X    ",
"   X........................X   ",
"   X........................X   ",
"   X........................X   ",
"  X..........................X  ",
"  X.............X............X  ",
"  X............X X...........X  ",
"  X...........X   X..........X  ",
"  X...........X   X..........X  ",
"  X..........X     X.........X  ",
"   X........X       X.......X   ",
"   X........X       X.......X   ",
"   X.......X         X......X   ",
"    X.....X           X....X    ",
"    X.....X           X....X    ",
"     X...X             X..X     ",
"      X.X               XX      ",
"       X                X       ",
"                                ",
"                                ",
"                                ",
"                                ",
"                                "
};
