/* XPM */
static char *result[] = {
/* columns rows colors chars-per-pixel */
"32 32 3 1 ",
"  c black",
". c #FFC20E",
"X c white",
/* pixels */
"                                ",
"                                ",
"             XXXXXX             ",
"          XXX......XXX          ",
"        XX............XX        ",
"       X................X       ",
"      X..................X      ",
"     X....................X     ",
"     XX....................X    ",
"      XX...................X    ",
"       XXX..................X   ",
"         XX.................X   ",
"          XXX...............X   ",
"            XX...............X  ",
"             XXX.............X  ",
"               XX............X  ",
"                XX...........X  ",
"               XX............X  ",
"             XXX.............X  ",
"            XX..............X   ",
"          XXX...............X   ",
"         XX.................X   ",
"       XXX.................X    ",
"      XX...................X    ",
"     XX...................X     ",
"      X..................X      ",
"       X................X       ",
"        XX............XX        ",
"          XXX......XXX          ",
"             XXXXXX             ",
"                                ",
"                                "
};
