/* XPM */
static char *_51ad7923b144670b4bc799b96629b3c8vYkhGnQWnpvzgl4[] = {
/* columns rows colors chars-per-pixel */
"32 32 3 1 ",
"  c None",
". c #FFC20E",
"X c white",
/* pixels */
"                                ",
"                                ",
"                                ",
"          XXX      XXX          ",
"        XX...X     X..XX        ",
"       X.....X     X....X       ",
"      X......X     X.....X      ",
"     X.......X     X......X     ",
"    X.........X   X........X    ",
"    X.........X   X........X    ",
"   X..........X   X.........X   ",
"   X...........X X..........X   ",
"   X...........X X..........X   ",
"  X............X X...........X  ",
"  X.............X............X  ",
"  X.............X............X  ",
"  X.............X............X  ",
"  X..........................X  ",
"  X..........................X  ",
"   X........................X   ",
"   X........................X   ",
"   X........................X   ",
"    X......................X    ",
"    X......................X    ",
"     X....................X     ",
"      X..................X      ",
"       X................X       ",
"        XX............XX        ",
"          XXX......XXX          ",
"             XXXXXX             ",
"                                ",
"                                "
};
