/* XPM */
static char *_c94ebe5d22e451da4284bfbba20180dIVV6hGjmbEsLf1KG[] = {
/* columns rows colors chars-per-pixel */
"32 32 3 1 ",
"  c black",
". c #FFC20E",
"X c white",
/* pixels */
"                                ",
"                                ",
"                                ",
"                                ",
"                                ",
"       XXX                      ",
"      X.XX             XXX      ",
"     X...X             X..X     ",
"    X.....X           X....X    ",
"    X.....X           X....X    ",
"   X.......X         X......X   ",
"   X........X       X.......X   ",
"   X........X       X.......X   ",
"  X..........X     X.........X  ",
"  X...........X   X..........X  ",
"  X...........X   X..........X  ",
"  X............X X...........X  ",
"  X.............X............X  ",
"  X..........................X  ",
"   X........................X   ",
"   X........................X   ",
"   X........................X   ",
"    X......................X    ",
"    X......................X    ",
"     X....................X     ",
"      X..................X      ",
"       X................X       ",
"        XX............XX        ",
"          XXX......XXX          ",
"             XXXXXX             ",
"                                ",
"                                "
};
