/* XPM */
static char *_bb8d6e9c446482a98e0ff7b80f8efee8A35j60YTQiTNL48[] = {
/* columns rows colors chars-per-pixel */
"32 32 3 1 ",
"  c None",
". c #FFC20E",
"X c white",
/* pixels */
"                                ",
"                                ",
"             XXXXXX             ",
"          XXX...X..XXX          ",
"        XX......X.....XX        ",
"       X........X.......X       ",
"      X.........X........X      ",
"     X..........X.........X     ",
"    X...........X..........X    ",
"    X...........X..........X    ",
"   X............X...........X   ",
"   X............X...........X   ",
"   X............X...........X   ",
"  X.............X............X  ",
"  X.............X............X  ",
"  X.............X............X  ",
"  X.............X............X  ",
"  X..........................X  ",
"  X..........................X  ",
"   X........................X   ",
"   X........................X   ",
"   X........................X   ",
"    X......................X    ",
"    X......................X    ",
"     X....................X     ",
"      X..................X      ",
"       X................X       ",
"        XX............XX        ",
"          XXX......XXX          ",
"             XXXXXX             ",
"                                ",
"                                "
};
