/* XPM */
static char *result[] = {
/* columns rows colors chars-per-pixel */
"32 32 10 1 ",
"  c None",
". c #106629",
"X c #990030",
"o c #ED1C24",
"O c #9C5A3C",
"+ c #B87356",
"@ c #22B14C",
"# c #E5AA7A",
"$ c #FFA3B1",
"% c white",
/* pixels */
"                                ",
"           %%%%%                ",
"       %%% %.@@%%%%%%           ",
"       %@%%%%.@@%...% %%%%      ",
"       %@@@%%%..%%%%%%%@.% %%   ",
"       %%.@@@%.%@@@%@@@.%%%%@%  ",
"        %%....%@@@..%..%%%%@.%  ",
"       %%@%..%.@@....%%.%....%  ",
"      %%@..%%o%.@...%%...%..%%  ",
"     %%@.%%oooo%...%XX%%..%%%   ",
"     %..%oooo$$o%%%ooXXX%..%%   ",
"     %.%ooo$$+$oooooooXXX%..%   ",
"     %%ooo$$$%$oo+ooo+XXOX%.%   ",
"     %%oo$$$$$ooo$ooo$oXoX%.%   ",
"     %oo$$+$$ooooooooooXXXX%%   ",
"     %oo$$%$ooo+ooo+oooXOXX%    ",
"     %ooo$$oooo$ooo$oooXoXX%    ",
"     %o+oooo+ooooooooooXXXX%    ",
"     %o$oooo$oooo+oooooXXOX%    ",
"     %ooooooooooo$ooooXXXoX%    ",
"     %ooo+oooo+ooooo+oXOXXX%    ",
"     %%oo$oooo$ooooo$oXoXX%%    ",
"      %oooo+ooooo+oooXXXOX%     ",
"      %%ooo$ooo+o$oooXXXoX%     ",
"       %ooooooo#ooooXXXXX%%     ",
"       %%ooo+oo$oooXXOXX%%      ",
"        %%oo$ooooooXXoX%%       ",
"         %%ooooo+oXXXX%%        ",
"          %%oooo$XXXX%%         ",
"           %%%XXXXX%%%          ",
"             %%%%%%%            ",
"                                "
};
