/* XPM */
static char *result[] = {
/* columns rows colors chars-per-pixel */
"32 32 7 1 ",
"  c None",
". c #106629",
"X c #9C5A3C",
"o c #B87356",
"O c #22B14C",
"+ c #62DE85",
"@ c white",
/* pixels */
"                                ",
"                                ",
"                @@@@            ",
"               @@oo@            ",
"               @oXX@            ",
"             @@@XX@@            ",
"            @@OOXX.@@           ",
"           @@OOOO...@           ",
"          @@OOOOOO...@          ",
"         @@OOO++OOO..@@         ",
"         @OOO++++OOO..@         ",
"        @@OO+++++OOO..@@        ",
"       @@OOO+++++OOOO..@@       ",
"       @OOO++++++OOOO...@       ",
"      @@OOO++++++OOOOO..@@      ",
"      @OOO+++++++OOOOO...@      ",
"     @@OOO+++++++OOOOOO..@@     ",
"     @OOOO+++++++OOOOOO...@     ",
"     @OOOOO+++++OOOOOOO...@     ",
"     @.OOOOO+++OOOOOOO....@     ",
"     @.OOOOOOOOOOOOOOO....@     ",
"     @..OOOOOOOOOOOOO.....@     ",
"     @@..OOOOOOOOOOO.....@@     ",
"      @...OOOOOOOOO......@      ",
"      @@....OOOOO.......@@      ",
"       @@..............@@       ",
"        @@............@@        ",
"         @@..........@@         ",
"          @@@......@@@          ",
"            @@@@@@@@            ",
"                                ",
"                                "
};
