/* XPM */
static char *result[] = {
/* columns rows colors chars-per-pixel */
"32 32 3 1 ",
"  c None",
". c #2F3699",
"X c white",
/* pixels */
"                                ",
"                                ",
"            XXXXXXX             ",
"         XXX.......XXX          ",
"       XX.............XX        ",
"      X.................X       ",
"     X...................X      ",
"    X.....................X     ",
"   X.....XX.........XX.....X    ",
"   X....XXXX.......XXXX....X    ",
"  X....XXXXXX.....XXXXXX....X   ",
"  X....XXXXXX.....XXXXXX....X   ",
"  X....XXXXXX.....XXXXXX....X   ",
"  X....XXXXXX.....XXXXXX....X   ",
"  X.....XXXX.......XXXX.....X   ",
"  X......XX.........XX......X   ",
"  X.........................X   ",
"  X.........................X   ",
"  X.........................X   ",
"  X......X.....X.....X......X   ",
"  X.....X.X...X.X...X.X.....X   ",
"  X....X...X.X...X.X...X....X   ",
"  X...X.....X.....X.....X...X   ",
"  X.........................X   ",
"  X.........................X   ",
"  X.........................X   ",
"  X..X.....XX.....XX.....X..X   ",
"  X.X X...X  X...X  X...X X.X   ",
"  XX   X.X    X.X    X.X   XX   ",
"  X     X      X      X     X   ",
"                                ",
"                                "
};
