/* XPM */
static char *ca70cc1cdb1343a5c7f7b480ed629805YcJMqA7du80hqbW1[] = {
/* columns rows colors chars-per-pixel */
"32 32 3 1 ",
"  c None",
". c #FFC20E",
"X c white",
/* pixels */
"                                ",
"                                ",
"             XXXXXX             ",
"          XXX......XXX          ",
"        XX............XX        ",
"       X................X       ",
"      X..................X      ",
"     X....................X     ",
"    X......................X    ",
"    X......................X    ",
"   X........................X   ",
"   X........................X   ",
"   X........................X   ",
"  X..........................X  ",
"  X..........................X  ",
"  X.............X............X  ",
"  X.............X............X  ",
"  X.............X............X  ",
"  X............X X...........X  ",
"   X...........X X..........X   ",
"   X...........X X..........X   ",
"   X..........X   X.........X   ",
"    X.........X   X........X    ",
"    X.........X   X........X    ",
"     X.......X     X......X     ",
"      X......X     X.....X      ",
"       X.....X     X....X       ",
"        XX...X     X..XX        ",
"          XXXX     XXX          ",
"                                ",
"                                ",
"                                "
};
